<?xml version="1.0" encoding="UTF-8" standalone="no"?>
<!DOCTYPE svg PUBLIC "-//W3C//DTD SVG 1.1//EN"
 "http://www.w3.org/Graphics/SVG/1.1/DTD/svg11.dtd">
<!-- Generated by graphviz version 2.43.0 (0)
 -->
<!-- Title: %3 Pages: 1 -->
<svg width="1132pt" height="404pt"
 viewBox="0.00 0.00 1132.07 404.00" xmlns="http://www.w3.org/2000/svg" xmlns:xlink="http://www.w3.org/1999/xlink">
<g id="graph0" class="graph" transform="scale(1 1) rotate(0) translate(4 400)">
<title>%3</title>
<polygon fill="white" stroke="transparent" points="-4,4 -4,-400 1128.07,-400 1128.07,4 -4,4"/>
<!-- [root] aws_instance.nexus -->
<g id="node1" class="node">
<title>[root] aws_instance.nexus</title>
<polygon fill="none" stroke="black" points="651.95,-252 525.34,-252 525.34,-216 651.95,-216 651.95,-252"/>
<text text-anchor="middle" x="588.64" y="-229.8" font-family="Times,serif" font-size="14.00">aws_instance.nexus</text>
</g>
<!-- [root] aws_key_pair.deployer -->
<g id="node2" class="node">
<title>[root] aws_key_pair.deployer</title>
<polygon fill="none" stroke="black" points="380.61,-180 234.68,-180 234.68,-144 380.61,-144 380.61,-180"/>
<text text-anchor="middle" x="307.64" y="-157.8" font-family="Times,serif" font-size="14.00">aws_key_pair.deployer</text>
</g>
<!-- [root] aws_instance.nexus&#45;&gt;[root] aws_key_pair.deployer -->
<g id="edge1" class="edge">
<title>[root] aws_instance.nexus&#45;&gt;[root] aws_key_pair.deployer</title>
<path fill="none" stroke="black" d="M525.23,-217.2C484,-206.93 429.93,-193.46 386.01,-182.52"/>
<polygon fill="black" stroke="black" points="386.78,-179.11 376.23,-180.09 385.09,-185.9 386.78,-179.11"/>
</g>
<!-- [root] aws_security_group.open_ssh -->
<g id="node3" class="node">
<title>[root] aws_security_group.open_ssh</title>
<polygon fill="none" stroke="black" points="583.01,-180 398.28,-180 398.28,-144 583.01,-144 583.01,-180"/>
<text text-anchor="middle" x="490.64" y="-157.8" font-family="Times,serif" font-size="14.00">aws_security_group.open_ssh</text>
</g>
<!-- [root] aws_instance.nexus&#45;&gt;[root] aws_security_group.open_ssh -->
<g id="edge2" class="edge">
<title>[root] aws_instance.nexus&#45;&gt;[root] aws_security_group.open_ssh</title>
<path fill="none" stroke="black" d="M564.67,-215.88C552.09,-206.89 536.51,-195.76 522.89,-186.03"/>
<polygon fill="black" stroke="black" points="524.88,-183.15 514.71,-180.19 520.81,-188.85 524.88,-183.15"/>
</g>
<!-- [root] provisioner.file -->
<g id="node8" class="node">
<title>[root] provisioner.file</title>
<ellipse fill="none" stroke="black" cx="686.64" cy="-162" rx="85.52" ry="18"/>
<text text-anchor="middle" x="686.64" y="-157.8" font-family="Times,serif" font-size="14.00">[root] provisioner.file</text>
</g>
<!-- [root] aws_instance.nexus&#45;&gt;[root] provisioner.file -->
<g id="edge3" class="edge">
<title>[root] aws_instance.nexus&#45;&gt;[root] provisioner.file</title>
<path fill="none" stroke="black" d="M612.62,-215.88C625.47,-206.69 641.48,-195.26 655.31,-185.38"/>
<polygon fill="black" stroke="black" points="657.49,-188.13 663.59,-179.47 653.42,-182.43 657.49,-188.13"/>
</g>
<!-- [root] provisioner.remote&#45;exec -->
<g id="node9" class="node">
<title>[root] provisioner.remote&#45;exec</title>
<ellipse fill="none" stroke="black" cx="908.64" cy="-162" rx="118.31" ry="18"/>
<text text-anchor="middle" x="908.64" y="-157.8" font-family="Times,serif" font-size="14.00">[root] provisioner.remote&#45;exec</text>
</g>
<!-- [root] aws_instance.nexus&#45;&gt;[root] provisioner.remote&#45;exec -->
<g id="edge4" class="edge">
<title>[root] aws_instance.nexus&#45;&gt;[root] provisioner.remote&#45;exec</title>
<path fill="none" stroke="black" d="M652.25,-219.09C704.58,-207.64 778.85,-191.39 834,-179.33"/>
<polygon fill="black" stroke="black" points="835.04,-182.68 844.06,-177.13 833.55,-175.84 835.04,-182.68"/>
</g>
<!-- [root] provider.aws -->
<g id="node4" class="node">
<title>[root] provider.aws</title>
<polygon fill="none" stroke="black" points="398.64,-108 320.04,-90 398.64,-72 477.25,-90 398.64,-108"/>
<text text-anchor="middle" x="398.64" y="-85.8" font-family="Times,serif" font-size="14.00">provider.aws</text>
</g>
<!-- [root] aws_key_pair.deployer&#45;&gt;[root] provider.aws -->
<g id="edge5" class="edge">
<title>[root] aws_key_pair.deployer&#45;&gt;[root] provider.aws</title>
<path fill="none" stroke="black" d="M330.14,-143.7C343.3,-133.57 359.95,-120.76 373.54,-110.31"/>
<polygon fill="black" stroke="black" points="375.75,-113.02 381.55,-104.15 371.49,-107.48 375.75,-113.02"/>
</g>
<!-- [root] aws_security_group.open_ssh&#45;&gt;[root] provider.aws -->
<g id="edge6" class="edge">
<title>[root] aws_security_group.open_ssh&#45;&gt;[root] provider.aws</title>
<path fill="none" stroke="black" d="M467.9,-143.7C454.59,-133.57 437.76,-120.76 424.02,-110.31"/>
<polygon fill="black" stroke="black" points="426.01,-107.42 415.93,-104.15 421.77,-112.99 426.01,-107.42"/>
</g>
<!-- [root] var.access_key -->
<g id="node5" class="node">
<title>[root] var.access_key</title>
<polygon fill="none" stroke="black" points="338.22,-36 245.07,-36 245.07,0 344.22,0 344.22,-30 338.22,-36"/>
<polyline fill="none" stroke="black" points="338.22,-36 338.22,-30 "/>
<polyline fill="none" stroke="black" points="344.22,-30 338.22,-30 "/>
<text text-anchor="middle" x="294.64" y="-13.8" font-family="Times,serif" font-size="14.00">var.access_key</text>
</g>
<!-- [root] provider.aws&#45;&gt;[root] var.access_key -->
<g id="edge9" class="edge">
<title>[root] provider.aws&#45;&gt;[root] var.access_key</title>
<path fill="none" stroke="black" d="M379.57,-76.16C365.39,-66.62 345.65,-53.33 328.78,-41.98"/>
<polygon fill="black" stroke="black" points="330.51,-38.92 320.26,-36.24 326.6,-44.73 330.51,-38.92"/>
</g>
<!-- [root] var.region -->
<g id="node6" class="node">
<title>[root] var.region</title>
<polygon fill="none" stroke="black" points="429.02,-36 362.27,-36 362.27,0 435.02,0 435.02,-30 429.02,-36"/>
<polyline fill="none" stroke="black" points="429.02,-36 429.02,-30 "/>
<polyline fill="none" stroke="black" points="435.02,-30 429.02,-30 "/>
<text text-anchor="middle" x="398.64" y="-13.8" font-family="Times,serif" font-size="14.00">var.region</text>
</g>
<!-- [root] provider.aws&#45;&gt;[root] var.region -->
<g id="edge10" class="edge">
<title>[root] provider.aws&#45;&gt;[root] var.region</title>
<path fill="none" stroke="black" d="M398.64,-71.7C398.64,-63.98 398.64,-54.71 398.64,-46.11"/>
<polygon fill="black" stroke="black" points="402.14,-46.1 398.64,-36.1 395.14,-46.1 402.14,-46.1"/>
</g>
<!-- [root] var.secret_key -->
<g id="node7" class="node">
<title>[root] var.secret_key</title>
<polygon fill="none" stroke="black" points="543.11,-36 452.18,-36 452.18,0 549.11,0 549.11,-30 543.11,-36"/>
<polyline fill="none" stroke="black" points="543.11,-36 543.11,-30 "/>
<polyline fill="none" stroke="black" points="549.11,-30 543.11,-30 "/>
<text text-anchor="middle" x="500.64" y="-13.8" font-family="Times,serif" font-size="14.00">var.secret_key</text>
</g>
<!-- [root] provider.aws&#45;&gt;[root] var.secret_key -->
<g id="edge11" class="edge">
<title>[root] provider.aws&#45;&gt;[root] var.secret_key</title>
<path fill="none" stroke="black" d="M417.35,-76.16C431.26,-66.62 450.61,-53.33 467.16,-41.98"/>
<polygon fill="black" stroke="black" points="469.26,-44.79 475.52,-36.24 465.29,-39.01 469.26,-44.79"/>
</g>
<!-- [root] meta.count&#45;boundary (EachMode fixup) -->
<g id="node10" class="node">
<title>[root] meta.count&#45;boundary (EachMode fixup)</title>
<ellipse fill="none" stroke="black" cx="174.64" cy="-306" rx="174.79" ry="18"/>
<text text-anchor="middle" x="174.64" y="-301.8" font-family="Times,serif" font-size="14.00">[root] meta.count&#45;boundary (EachMode fixup)</text>
</g>
<!-- [root] meta.count&#45;boundary (EachMode fixup)&#45;&gt;[root] aws_instance.nexus -->
<g id="edge7" class="edge">
<title>[root] meta.count&#45;boundary (EachMode fixup)&#45;&gt;[root] aws_instance.nexus</title>
<path fill="none" stroke="black" d="M261.43,-290.33C336.57,-277.62 444.06,-259.45 515.06,-247.44"/>
<polygon fill="black" stroke="black" points="515.98,-250.84 525.26,-245.72 514.82,-243.93 515.98,-250.84"/>
</g>
<!-- [root] provider.aws (close) -->
<g id="node11" class="node">
<title>[root] provider.aws (close)</title>
<ellipse fill="none" stroke="black" cx="471.64" cy="-306" rx="104.33" ry="18"/>
<text text-anchor="middle" x="471.64" y="-301.8" font-family="Times,serif" font-size="14.00">[root] provider.aws (close)</text>
</g>
<!-- [root] provider.aws (close)&#45;&gt;[root] aws_instance.nexus -->
<g id="edge8" class="edge">
<title>[root] provider.aws (close)&#45;&gt;[root] aws_instance.nexus</title>
<path fill="none" stroke="black" d="M499.07,-288.59C514.72,-279.23 534.54,-267.37 551.56,-257.19"/>
<polygon fill="black" stroke="black" points="553.38,-260.18 560.16,-252.04 549.78,-254.17 553.38,-260.18"/>
</g>
<!-- [root] provisioner.file (close) -->
<g id="node12" class="node">
<title>[root] provisioner.file (close)</title>
<ellipse fill="none" stroke="black" cx="705.64" cy="-306" rx="112.06" ry="18"/>
<text text-anchor="middle" x="705.64" y="-301.8" font-family="Times,serif" font-size="14.00">[root] provisioner.file (close)</text>
</g>
<!-- [root] provisioner.file (close)&#45;&gt;[root] aws_instance.nexus -->
<g id="edge12" class="edge">
<title>[root] provisioner.file (close)&#45;&gt;[root] aws_instance.nexus</title>
<path fill="none" stroke="black" d="M677.92,-288.41C662.52,-279.2 643.15,-267.61 626.39,-257.59"/>
<polygon fill="black" stroke="black" points="627.77,-254.33 617.39,-252.2 624.18,-260.34 627.77,-254.33"/>
</g>
<!-- [root] provisioner.remote&#45;exec (close) -->
<g id="node13" class="node">
<title>[root] provisioner.remote&#45;exec (close)</title>
<ellipse fill="none" stroke="black" cx="979.64" cy="-306" rx="144.35" ry="18"/>
<text text-anchor="middle" x="979.64" y="-301.8" font-family="Times,serif" font-size="14.00">[root] provisioner.remote&#45;exec (close)</text>
</g>
<!-- [root] provisioner.remote&#45;exec (close)&#45;&gt;[root] aws_instance.nexus -->
<g id="edge13" class="edge">
<title>[root] provisioner.remote&#45;exec (close)&#45;&gt;[root] aws_instance.nexus</title>
<path fill="none" stroke="black" d="M900.52,-290.83C830.9,-278.37 730.33,-260.37 662.37,-248.2"/>
<polygon fill="black" stroke="black" points="662.63,-244.69 652.17,-246.37 661.4,-251.58 662.63,-244.69"/>
</g>
<!-- [root] root -->
<g id="node14" class="node">
<title>[root] root</title>
<ellipse fill="none" stroke="black" cx="588.64" cy="-378" rx="46.9" ry="18"/>
<text text-anchor="middle" x="588.64" y="-373.8" font-family="Times,serif" font-size="14.00">[root] root</text>
</g>
<!-- [root] root&#45;&gt;[root] meta.count&#45;boundary (EachMode fixup) -->
<g id="edge14" class="edge">
<title>[root] root&#45;&gt;[root] meta.count&#45;boundary (EachMode fixup)</title>
<path fill="none" stroke="black" d="M546.67,-369.9C482.54,-359.06 358.43,-338.08 271.25,-323.34"/>
<polygon fill="black" stroke="black" points="271.79,-319.88 261.34,-321.66 270.62,-326.78 271.79,-319.88"/>
</g>
<!-- [root] root&#45;&gt;[root] provider.aws (close) -->
<g id="edge15" class="edge">
<title>[root] root&#45;&gt;[root] provider.aws (close)</title>
<path fill="none" stroke="black" d="M564.4,-362.5C548.07,-352.72 526.23,-339.66 507.84,-328.66"/>
<polygon fill="black" stroke="black" points="509.51,-325.58 499.14,-323.45 505.92,-331.59 509.51,-325.58"/>
</g>
<!-- [root] root&#45;&gt;[root] provisioner.file (close) -->
<g id="edge16" class="edge">
<title>[root] root&#45;&gt;[root] provisioner.file (close)</title>
<path fill="none" stroke="black" d="M612.89,-362.5C629.11,-352.79 650.75,-339.84 669.06,-328.89"/>
<polygon fill="black" stroke="black" points="670.95,-331.84 677.73,-323.7 667.35,-325.83 670.95,-331.84"/>
</g>
<!-- [root] root&#45;&gt;[root] provisioner.remote&#45;exec (close) -->
<g id="edge17" class="edge">
<title>[root] root&#45;&gt;[root] provisioner.remote&#45;exec (close)</title>
<path fill="none" stroke="black" d="M630.12,-369.58C691.75,-358.54 809,-337.55 890.62,-322.94"/>
<polygon fill="black" stroke="black" points="891.67,-326.31 900.89,-321.1 890.43,-319.42 891.67,-326.31"/>
</g>
</g>
</svg>
